# xmcd
#
# Track frame offsets:
#	183
#	23825
#	34115
#	44705
#	50393
#	69713
#	86678
#	97123
#	117335
#	135483
#	153550
#	170958
#	176708
#	188018
#	199200
#	222560
#	242553
#	262230
#	269015
#	288530
#	295855
#	303140
#
# Disc length: 4217 seconds
#
# Revision: 0
# Processed by: cddbd v1.5.2PL0 Copyright (c) Steve Scherf et al.
# Submitted via: EasyCDDAExtractor 12.0.0.1
#
DISCID=60107716
DTITLE=Gioachino Rossini - La cambiale di matrimonio (Niquet)
DYEAR=1991
DGENRE=
TTITLE0=Ouverture
TTITLE1=Duo Norton-Clarina - Non c'è il vecchio sussurrone
TTITLE2=Aria Mill - Chi mai trova il dritto
TTITLE3=Trio Norton-Mill-Clarina - Ma riflettete-Ma via tacete
TTITLE4=Recitativo Norton - Ma signore questa lettera
TTITLE5=Duo Edoardo-Fanny - Qual delizioso incanto
TTITLE6=Recitativo Edoardo - Sì cara mia
TTITLE7=Cavatina Sloook - Grazie, grazie...
TTITLE8=Recitativo Slook - Sicché dunque istruitemi
TTITLE9=Duo Slook-Fanny -  Darei per sì-Cercate un altro
TTITLE10=Trio Fanny-Edoardo-Slook - Non mi piacete-E un vero inferno-Eh non is
TTITLE10=tate
TTITLE11=Recitativo Norton - Non si farà
TTITLE12=Aria Clarina - Anch'io son giovine
TTITLE13=Recitativo Norton - Eccolo appunto
TTITLE14=Duo Mill-Slook - Questo è un procedere
TTITLE15=Recitativo Clarina - Venite, sono andati
TTITLE16=Aria Fanny - Vorrei spiegarvi il giubilo
TTITLE17=Recitativo Slook - Eppur lo cred'anch'io
TTITLE18=Duo Mill-Slook - In piu nobile maniera
TTITLE19=Quartetto Fanny-Mill-Clarina-Slook - Quel ma mi desta gl'impeti
TTITLE20=Sestetto
TTITLE21=Finale
EXTD=
EXTT0=
EXTT1=
EXTT2=
EXTT3=
EXTT4=
EXTT5=
EXTT6=
EXTT7=
EXTT8=
EXTT9=
EXTT10=
EXTT11=
EXTT12=
EXTT13=
EXTT14=
EXTT15=
EXTT16=
EXTT17=
EXTT18=
EXTT19=
EXTT20=
EXTT21=
PLAYORDER=
